<svg width="20" height="20" viewBox="0 0 20 20" fill="none" xmlns="http://www.w3.org/2000/svg">
<path d="M6.19721 9.108L18.0822 0.94215C19.026 0.3102 19.7998 0.77385 19.7998 1.9734V17.8283C19.7998 19.0245 19.026 19.4881 18.0822 18.8595L6.19721 10.6903C6.19721 10.6903 5.73686 10.362 5.73686 9.90165C5.73686 9.43965 6.19721 9.108 6.19721 9.108ZM3.29981 0H1.64981C0.73736 0 -0.000190735 0.0791999 -0.000190735 0.99V18.81C-0.000190735 19.7208 0.73736 19.8 1.64981 19.8H3.29981C4.21226 19.8 4.94981 19.7208 4.94981 18.81V0.99C4.94981 0.0791999 4.21226 0 3.29981 0Z" fill="#454545"/>
<path d="M6.19721 9.108L18.0822 0.94215C19.026 0.3102 19.7998 0.77385 19.7998 1.9734V17.8283C19.7998 19.0245 19.026 19.4881 18.0822 18.8595L6.19721 10.6903C6.19721 10.6903 5.73686 10.362 5.73686 9.90165C5.73686 9.43965 6.19721 9.108 6.19721 9.108ZM3.29981 0H1.64981C0.73736 0 -0.000190735 0.0791999 -0.000190735 0.99V18.81C-0.000190735 19.7208 0.73736 19.8 1.64981 19.8H3.29981C4.21226 19.8 4.94981 19.7208 4.94981 18.81V0.99C4.94981 0.0791999 4.21226 0 3.29981 0Z" fill="white"/>
</svg>
