<svg width="46" height="46" viewBox="0 0 46 46" fill="none" xmlns="http://www.w3.org/2000/svg">
<path d="M30.7898 15.9383C30.7898 15.7406 30.6281 15.5789 30.4305 15.5789L27.4656 15.5924L23.0004 20.9156L18.5396 15.5969L15.5703 15.5834C15.3727 15.5834 15.2109 15.7406 15.2109 15.9428C15.2109 16.0281 15.2424 16.109 15.2963 16.1764L21.1406 23.1393L15.2963 30.0977C15.242 30.1635 15.2119 30.2459 15.2109 30.3313C15.2109 30.5289 15.3727 30.6906 15.5703 30.6906L18.5396 30.6772L23.0004 25.3539L27.4611 30.6727L30.426 30.6861C30.6236 30.6861 30.7853 30.5289 30.7853 30.3268C30.7853 30.2414 30.7539 30.1606 30.7 30.0932L24.8646 23.1348L30.709 16.1719C30.7629 16.109 30.7898 16.0236 30.7898 15.9383Z" fill="white"/>
<path d="M23 2.91992C11.8863 2.91992 2.875 11.9313 2.875 23.0449C2.875 34.1586 11.8863 43.1699 23 43.1699C34.1137 43.1699 43.125 34.1586 43.125 23.0449C43.125 11.9313 34.1137 2.91992 23 2.91992ZM23 39.7559C13.773 39.7559 6.28906 32.2719 6.28906 23.0449C6.28906 13.818 13.773 6.33398 23 6.33398C32.227 6.33398 39.7109 13.818 39.7109 23.0449C39.7109 32.2719 32.227 39.7559 23 39.7559Z" fill="white"/>
</svg>
