<svg width="40" height="41" viewBox="0 0 40 41" fill="none" xmlns="http://www.w3.org/2000/svg">
<path d="M0.262696 4.30839C0.262696 1.99929 1.82274 0.125244 3.74216 0.125244H5.13506C7.05726 0.125244 8.61173 1.99929 8.61173 4.30839V36.0836C8.61173 38.3927 7.05447 40.2667 5.13506 40.2667H3.74216C3.28486 40.2663 2.83212 40.1577 2.40977 39.947C1.98743 39.7364 1.60375 39.4279 1.28065 39.0392C0.957555 38.6504 0.701362 38.189 0.5267 37.6813C0.352039 37.1736 0.26233 36.6296 0.262696 36.0802V4.30505V4.30839ZM3.74216 3.47176C3.55745 3.47176 3.3803 3.55991 3.24969 3.71681C3.11908 3.8737 3.04571 4.0865 3.04571 4.30839V36.0836C3.04571 36.5454 3.35772 36.9202 3.74216 36.9202H5.13506C5.31977 36.9202 5.49691 36.8321 5.62752 36.6752C5.75813 36.5183 5.83151 36.3055 5.83151 36.0836V4.30505C5.83151 4.08316 5.75813 3.87036 5.62752 3.71346C5.49691 3.55656 5.31977 3.46842 5.13506 3.46842H3.74216V3.47176ZM11.3975 4.30839C11.3975 1.99929 12.9548 0.125244 14.877 0.125244H16.2699C18.1893 0.125244 19.7466 1.99929 19.7466 4.30839V36.0836C19.7466 38.3927 18.1865 40.2667 16.2671 40.2667H14.8742C13.9516 40.265 13.0673 39.8235 12.4155 39.0392C11.7636 38.2549 11.3975 37.1919 11.3975 36.0836V4.30505V4.30839ZM14.877 3.47176C14.6923 3.47176 14.5151 3.55991 14.3845 3.71681C14.2539 3.8737 14.1805 4.0865 14.1805 4.30839V36.0836C14.1805 36.5454 14.4926 36.9202 14.877 36.9202H16.2699C16.4541 36.9193 16.6305 36.8308 16.7606 36.674C16.8906 36.5172 16.9636 36.3049 16.9636 36.0836V4.30505C16.9636 4.08316 16.8902 3.87036 16.7596 3.71346C16.629 3.55656 16.4518 3.46842 16.2671 3.46842H14.8742L14.877 3.47176ZM30.8285 9.41853C30.4945 8.42171 29.8538 7.61768 29.0394 7.17337C28.2249 6.72906 27.2994 6.6786 26.4548 7.03246L24.8306 7.71515C24.387 7.90225 23.9795 8.19535 23.6327 8.57677C23.2859 8.95819 23.007 9.42003 22.8128 9.93445C22.6186 10.4489 22.5131 11.0052 22.5027 11.5699C22.4924 12.1346 22.5773 12.696 22.7524 13.2202L30.9343 37.6631C31.628 39.738 33.553 40.7854 35.3108 40.0492L36.9322 39.3665C37.3761 39.1795 37.784 38.8862 38.131 38.5046C38.4781 38.1229 38.7571 37.6608 38.9513 37.1459C39.1456 36.6311 39.2509 36.0744 39.2611 35.5093C39.2712 34.9442 39.1859 34.3825 39.0104 33.8582L30.8285 9.41853ZM27.3741 10.1882C27.5428 10.1187 27.7273 10.1296 27.8895 10.2186C28.0517 10.3076 28.1794 10.4681 28.246 10.6668L36.4279 35.1064C36.4634 35.2114 36.4808 35.3239 36.479 35.4372C36.4771 35.5505 36.4562 35.6622 36.4174 35.7654C36.3786 35.8687 36.3227 35.9614 36.2532 36.038C36.1836 36.1145 36.1019 36.1733 36.0128 36.2108L34.3915 36.8901C34.2228 36.9608 34.0379 36.9509 33.8751 36.8625C33.7123 36.774 33.584 36.6138 33.5168 36.4149L25.3349 11.9719C25.2998 11.8671 25.2828 11.7549 25.2849 11.642C25.2869 11.5291 25.3079 11.4178 25.3467 11.315C25.3855 11.2121 25.4412 11.1197 25.5105 11.0434C25.5798 10.9671 25.6613 10.9084 25.75 10.8709L27.3713 10.1882H27.3741Z" fill="white"/>
</svg>
