<svg width="20" height="20" viewBox="0 0 20 20" fill="none" xmlns="http://www.w3.org/2000/svg">
<path d="M13.6026 9.108L1.71765 0.94215C0.77385 0.3102 0 0.77385 0 1.9734V17.8283C0 19.0245 0.77385 19.4882 1.71765 18.8595L13.6026 10.6903C13.6026 10.6903 14.0629 10.362 14.0629 9.90165C14.0629 9.43965 13.6026 9.108 13.6026 9.108ZM16.5 0H18.15C19.0624 0 19.8 0.0791999 19.8 0.99V18.81C19.8 19.7208 19.0624 19.8 18.15 19.8H16.5C15.5875 19.8 14.85 19.7208 14.85 18.81V0.99C14.85 0.0791999 15.5875 0 16.5 0Z" fill="white"/>
<path d="M13.6026 9.108L1.71765 0.94215C0.77385 0.3102 0 0.77385 0 1.9734V17.8283C0 19.0245 0.77385 19.4882 1.71765 18.8595L13.6026 10.6903C13.6026 10.6903 14.0629 10.362 14.0629 9.90165C14.0629 9.43965 13.6026 9.108 13.6026 9.108ZM16.5 0H18.15C19.0624 0 19.8 0.0791999 19.8 0.99V18.81C19.8 19.7208 19.0624 19.8 18.15 19.8H16.5C15.5875 19.8 14.85 19.7208 14.85 18.81V0.99C14.85 0.0791999 15.5875 0 16.5 0Z" fill="white"/>
</svg>
