<svg width="60" height="60" viewBox="0 0 60 60" fill="none" xmlns="http://www.w3.org/2000/svg">
<path d="M30 3.75C15.5039 3.75 3.75 15.5039 3.75 30C3.75 44.4961 15.5039 56.25 30 56.25C44.4961 56.25 56.25 44.4961 56.25 30C56.25 15.5039 44.4961 3.75 30 3.75ZM30 51.7969C17.9648 51.7969 8.20313 42.0352 8.20313 30C8.20313 17.9648 17.9648 8.20312 30 8.20312C42.0352 8.20312 51.7969 17.9648 51.7969 30C51.7969 42.0352 42.0352 51.7969 30 51.7969Z" fill="white"/>
<path d="M42.1524 29.2441L24.8027 16.6465C24.6636 16.5445 24.4989 16.4831 24.3269 16.4692C24.1549 16.4554 23.9825 16.4895 23.8288 16.5679C23.6751 16.6462 23.5461 16.7658 23.4564 16.9131C23.3666 17.0604 23.3195 17.2298 23.3203 17.4023L23.3203 42.5976C23.3203 43.3652 24.1875 43.7988 24.8027 43.3535L42.1524 30.7558C42.2721 30.6695 42.3697 30.556 42.437 30.4246C42.5043 30.2932 42.5394 30.1476 42.5394 30C42.5394 29.8523 42.5043 29.7068 42.437 29.5754C42.3697 29.444 42.2721 29.3304 42.1524 29.2441ZM27.0586 37.0957L27.0586 22.9043L36.8262 30L27.0586 37.0957Z" fill="white"/>
</svg>
