<svg width="52" height="52" viewBox="0 0 52 52" fill="none" xmlns="http://www.w3.org/2000/svg">
<path d="M48.75 26C48.75 13.4367 38.5633 3.25 26 3.25C13.4367 3.25 3.25 13.4367 3.25 26C3.25 38.5633 13.4367 48.75 26 48.75C38.5633 48.75 48.75 38.5633 48.75 26ZM7.10938 26C7.10938 15.5695 15.5695 7.10937 26 7.10937C36.4305 7.10937 44.8906 15.5695 44.8906 26C44.8906 36.4305 36.4305 44.8906 26 44.8906C15.5695 44.8906 7.10938 36.4305 7.10938 26Z" fill="white"/>
<path d="M26.6553 36.532L37.5733 21.4957C37.6617 21.3751 37.7148 21.2323 37.7269 21.0833C37.7389 20.9343 37.7093 20.7848 37.6414 20.6516C37.5735 20.5184 37.4699 20.4067 37.3422 20.3288C37.2145 20.251 37.0677 20.2102 36.9182 20.2109L15.0823 20.2109C14.417 20.2109 14.0412 20.9625 14.4272 21.4957L25.3452 36.532C25.42 36.6359 25.5184 36.7204 25.6323 36.7787C25.7462 36.837 25.8723 36.8674 26.0002 36.8674C26.1282 36.8674 26.2543 36.837 26.3682 36.7787C26.4821 36.7204 26.5805 36.6359 26.6553 36.532ZM19.8506 23.4508L32.1498 23.4508L26.0002 31.916L19.8506 23.4508Z" fill="white"/>
</svg>
