<svg width="50" height="48" viewBox="0 0 50 48" fill="none" xmlns="http://www.w3.org/2000/svg">
<path d="M49.8558 44.5498L34.2739 28.9679C36.6918 25.8419 37.9998 22.0199 37.9998 17.9999C37.9998 13.1879 36.1218 8.67596 32.7259 5.27398C29.3299 1.87199 24.8059 0 19.9999 0C15.1939 0 10.67 1.87799 7.27398 5.27398C3.87199 8.66996 2 13.1879 2 17.9999C2 22.8059 3.87799 27.3299 7.27398 30.7259C10.67 34.1278 15.1879 35.9998 19.9999 35.9998C24.0199 35.9998 27.8359 34.6918 30.9619 32.2799L46.5438 47.8558C46.5895 47.9015 46.6437 47.9378 46.7035 47.9625C46.7632 47.9873 46.8272 48 46.8918 48C46.9564 48 47.0204 47.9873 47.0801 47.9625C47.1399 47.9378 47.1941 47.9015 47.2398 47.8558L49.8558 45.2458C49.9015 45.2001 49.9378 45.1459 49.9625 45.0862C49.9873 45.0264 50 44.9624 50 44.8978C50 44.8332 49.9873 44.7692 49.9625 44.7095C49.9378 44.6497 49.9015 44.5955 49.8558 44.5498V44.5498ZM29.5039 27.5039C26.9599 30.0419 23.5879 31.4399 19.9999 31.4399C16.4119 31.4399 13.04 30.0419 10.496 27.5039C7.95797 24.9599 6.55998 21.5879 6.55998 17.9999C6.55998 14.4119 7.95797 11.034 10.496 8.49596C13.04 5.95797 16.4119 4.55998 19.9999 4.55998C23.5879 4.55998 26.9659 5.95197 29.5039 8.49596C32.0419 11.04 33.4399 14.4119 33.4399 17.9999C33.4399 21.5879 32.0419 24.9659 29.5039 27.5039Z" fill="white"/>
</svg>
